<mxfile host="Electron" agent="Mozilla/5.0 (Windows NT 10.0; Win64; x64) AppleWebKit/537.36 (KHTML, like Gecko) draw.io/26.2.2 Chrome/134.0.6998.178 Electron/35.1.2 Safari/537.36" version="26.2.2">
  <diagram name="Page-1" id="rgtj5dAHtcQf6XbIdJWg">
    <mxGraphModel dx="1816" dy="1582" grid="1" gridSize="10" guides="1" tooltips="1" connect="1" arrows="1" fold="1" page="1" pageScale="1" pageWidth="850" pageHeight="1100" math="0" shadow="0">
      <root>
        <mxCell id="0" />
        <mxCell id="1" parent="0" />
        <mxCell id="rsgTIMn-WzFMBPmV8Hxk-23" value="" style="edgeStyle=orthogonalEdgeStyle;rounded=0;orthogonalLoop=1;jettySize=auto;html=1;" parent="1" source="rsgTIMn-WzFMBPmV8Hxk-1" target="rsgTIMn-WzFMBPmV8Hxk-22" edge="1">
          <mxGeometry relative="1" as="geometry" />
        </mxCell>
        <mxCell id="rsgTIMn-WzFMBPmV8Hxk-1" value="User" style="rounded=0;whiteSpace=wrap;html=1;fontSize=20;fontFamily=Lucida Console;" parent="1" vertex="1">
          <mxGeometry x="410" y="90" width="120" height="60" as="geometry" />
        </mxCell>
        <mxCell id="rsgTIMn-WzFMBPmV8Hxk-2" value="Order" style="rounded=0;whiteSpace=wrap;html=1;fontSize=20;fontFamily=Lucida Console;" parent="1" vertex="1">
          <mxGeometry x="380" y="530" width="120" height="60" as="geometry" />
        </mxCell>
        <mxCell id="rsgTIMn-WzFMBPmV8Hxk-138" style="edgeStyle=orthogonalEdgeStyle;shape=connector;rounded=0;orthogonalLoop=1;jettySize=auto;html=1;strokeColor=default;align=center;verticalAlign=middle;fontFamily=Helvetica;fontSize=11;fontColor=default;labelBackgroundColor=default;startFill=0;endArrow=none;entryX=0;entryY=0.5;entryDx=0;entryDy=0;" parent="1" source="rsgTIMn-WzFMBPmV8Hxk-3" target="rsgTIMn-WzFMBPmV8Hxk-118" edge="1">
          <mxGeometry relative="1" as="geometry">
            <mxPoint x="-60" y="410" as="targetPoint" />
          </mxGeometry>
        </mxCell>
        <mxCell id="rsgTIMn-WzFMBPmV8Hxk-178" value="m" style="edgeLabel;html=1;align=center;verticalAlign=middle;resizable=0;points=[];fontFamily=Helvetica;fontSize=11;fontColor=default;labelBackgroundColor=default;" parent="rsgTIMn-WzFMBPmV8Hxk-138" vertex="1" connectable="0">
          <mxGeometry x="-0.794" relative="1" as="geometry">
            <mxPoint as="offset" />
          </mxGeometry>
        </mxCell>
        <mxCell id="rsgTIMn-WzFMBPmV8Hxk-3" value="Event" style="rounded=0;whiteSpace=wrap;html=1;fontSize=20;fontFamily=Lucida Console;" parent="1" vertex="1">
          <mxGeometry x="-375" y="380" width="120" height="60" as="geometry" />
        </mxCell>
        <mxCell id="rsgTIMn-WzFMBPmV8Hxk-89" value="" style="edgeStyle=orthogonalEdgeStyle;shape=connector;rounded=0;orthogonalLoop=1;jettySize=auto;html=1;strokeColor=default;align=center;verticalAlign=middle;fontFamily=Helvetica;fontSize=11;fontColor=default;labelBackgroundColor=default;startFill=0;endArrow=none;" parent="1" source="rsgTIMn-WzFMBPmV8Hxk-4" target="rsgTIMn-WzFMBPmV8Hxk-88" edge="1">
          <mxGeometry relative="1" as="geometry" />
        </mxCell>
        <mxCell id="rsgTIMn-WzFMBPmV8Hxk-169" value="m" style="edgeLabel;html=1;align=center;verticalAlign=middle;resizable=0;points=[];fontFamily=Helvetica;fontSize=11;fontColor=default;labelBackgroundColor=default;" parent="rsgTIMn-WzFMBPmV8Hxk-89" vertex="1" connectable="0">
          <mxGeometry x="-0.5793" y="1" relative="1" as="geometry">
            <mxPoint as="offset" />
          </mxGeometry>
        </mxCell>
        <mxCell id="rsgTIMn-WzFMBPmV8Hxk-98" style="edgeStyle=orthogonalEdgeStyle;shape=connector;rounded=0;orthogonalLoop=1;jettySize=auto;html=1;entryX=0;entryY=0.5;entryDx=0;entryDy=0;strokeColor=default;align=center;verticalAlign=middle;fontFamily=Helvetica;fontSize=11;fontColor=default;labelBackgroundColor=default;startFill=0;endArrow=none;" parent="1" source="rsgTIMn-WzFMBPmV8Hxk-4" target="rsgTIMn-WzFMBPmV8Hxk-97" edge="1">
          <mxGeometry relative="1" as="geometry">
            <Array as="points">
              <mxPoint x="850" y="1140" />
              <mxPoint x="910" y="1140" />
              <mxPoint x="910" y="1200" />
            </Array>
          </mxGeometry>
        </mxCell>
        <mxCell id="rsgTIMn-WzFMBPmV8Hxk-170" value="m" style="edgeLabel;html=1;align=center;verticalAlign=middle;resizable=0;points=[];fontFamily=Helvetica;fontSize=11;fontColor=default;labelBackgroundColor=default;" parent="rsgTIMn-WzFMBPmV8Hxk-98" vertex="1" connectable="0">
          <mxGeometry x="-0.8864" y="-1" relative="1" as="geometry">
            <mxPoint as="offset" />
          </mxGeometry>
        </mxCell>
        <mxCell id="rsgTIMn-WzFMBPmV8Hxk-4" value="Menu" style="rounded=0;whiteSpace=wrap;html=1;fontSize=20;fontFamily=Lucida Console;" parent="1" vertex="1">
          <mxGeometry x="770" y="1010" width="120" height="60" as="geometry" />
        </mxCell>
        <mxCell id="rsgTIMn-WzFMBPmV8Hxk-5" value="Ingredients" style="rounded=0;whiteSpace=wrap;html=1;fontSize=20;fontFamily=Lucida Console;" parent="1" vertex="1">
          <mxGeometry x="1210" y="1170" width="160" height="60" as="geometry" />
        </mxCell>
        <mxCell id="rsgTIMn-WzFMBPmV8Hxk-6" value="&lt;u&gt;user_id&lt;/u&gt;" style="ellipse;whiteSpace=wrap;html=1;fontFamily=Lucida Console;" parent="1" vertex="1">
          <mxGeometry x="290" y="30" width="90" height="50" as="geometry" />
        </mxCell>
        <mxCell id="rsgTIMn-WzFMBPmV8Hxk-16" value="" style="rounded=0;orthogonalLoop=1;jettySize=auto;html=1;strokeColor=default;align=center;verticalAlign=middle;fontFamily=Helvetica;fontSize=11;fontColor=default;labelBackgroundColor=default;startFill=0;endArrow=none;" parent="1" source="rsgTIMn-WzFMBPmV8Hxk-7" target="rsgTIMn-WzFMBPmV8Hxk-1" edge="1">
          <mxGeometry relative="1" as="geometry" />
        </mxCell>
        <mxCell id="rsgTIMn-WzFMBPmV8Hxk-7" value="name" style="ellipse;whiteSpace=wrap;html=1;fontFamily=Lucida Console;" parent="1" vertex="1">
          <mxGeometry x="410" y="10" width="90" height="50" as="geometry" />
        </mxCell>
        <mxCell id="rsgTIMn-WzFMBPmV8Hxk-17" style="rounded=0;orthogonalLoop=1;jettySize=auto;html=1;entryX=0.837;entryY=-0.012;entryDx=0;entryDy=0;entryPerimeter=0;endArrow=none;startFill=0;" parent="1" source="rsgTIMn-WzFMBPmV8Hxk-8" target="rsgTIMn-WzFMBPmV8Hxk-1" edge="1">
          <mxGeometry relative="1" as="geometry">
            <mxPoint x="510" y="80" as="targetPoint" />
          </mxGeometry>
        </mxCell>
        <mxCell id="rsgTIMn-WzFMBPmV8Hxk-8" value="date_of_birthday" style="ellipse;whiteSpace=wrap;html=1;fontFamily=Lucida Console;" parent="1" vertex="1">
          <mxGeometry x="530" y="20" width="140" height="50" as="geometry" />
        </mxCell>
        <mxCell id="rsgTIMn-WzFMBPmV8Hxk-18" value="" style="rounded=0;orthogonalLoop=1;jettySize=auto;html=1;strokeColor=default;align=center;verticalAlign=middle;fontFamily=Helvetica;fontSize=11;fontColor=default;labelBackgroundColor=default;startFill=0;endArrow=none;" parent="1" source="rsgTIMn-WzFMBPmV8Hxk-10" target="rsgTIMn-WzFMBPmV8Hxk-1" edge="1">
          <mxGeometry relative="1" as="geometry" />
        </mxCell>
        <mxCell id="rsgTIMn-WzFMBPmV8Hxk-10" value="phone_number" style="ellipse;shape=doubleEllipse;margin=3;whiteSpace=wrap;html=1;align=center;fontFamily=Lucida Console;" parent="1" vertex="1">
          <mxGeometry x="580" y="90" width="140" height="50" as="geometry" />
        </mxCell>
        <mxCell id="rsgTIMn-WzFMBPmV8Hxk-15" style="rounded=0;orthogonalLoop=1;jettySize=auto;html=1;entryX=-0.025;entryY=0.14;entryDx=0;entryDy=0;entryPerimeter=0;strokeColor=default;align=center;verticalAlign=middle;fontFamily=Helvetica;fontSize=11;fontColor=default;labelBackgroundColor=default;startFill=0;endArrow=none;" parent="1" source="rsgTIMn-WzFMBPmV8Hxk-6" target="rsgTIMn-WzFMBPmV8Hxk-1" edge="1">
          <mxGeometry relative="1" as="geometry" />
        </mxCell>
        <mxCell id="rsgTIMn-WzFMBPmV8Hxk-133" style="edgeStyle=none;shape=connector;rounded=0;orthogonalLoop=1;jettySize=auto;html=1;entryX=1;entryY=0;entryDx=0;entryDy=0;strokeColor=default;align=center;verticalAlign=middle;fontFamily=Helvetica;fontSize=11;fontColor=default;labelBackgroundColor=default;startFill=0;endArrow=none;" parent="1" source="rsgTIMn-WzFMBPmV8Hxk-22" target="rsgTIMn-WzFMBPmV8Hxk-24" edge="1">
          <mxGeometry relative="1" as="geometry" />
        </mxCell>
        <mxCell id="rsgTIMn-WzFMBPmV8Hxk-134" style="edgeStyle=none;shape=connector;rounded=0;orthogonalLoop=1;jettySize=auto;html=1;entryX=0;entryY=0;entryDx=0;entryDy=0;strokeColor=default;align=center;verticalAlign=middle;fontFamily=Helvetica;fontSize=11;fontColor=default;labelBackgroundColor=default;startFill=0;endArrow=none;" parent="1" source="rsgTIMn-WzFMBPmV8Hxk-22" target="rsgTIMn-WzFMBPmV8Hxk-26" edge="1">
          <mxGeometry relative="1" as="geometry" />
        </mxCell>
        <mxCell id="rsgTIMn-WzFMBPmV8Hxk-22" value="ISA" style="triangle;whiteSpace=wrap;html=1;direction=north;fontFamily=Lucida Console;labelPosition=center;verticalLabelPosition=middle;align=center;verticalAlign=middle;" parent="1" vertex="1">
          <mxGeometry x="430" y="190" width="80" height="60" as="geometry" />
        </mxCell>
        <mxCell id="rsgTIMn-WzFMBPmV8Hxk-50" value="" style="edgeStyle=orthogonalEdgeStyle;rounded=0;orthogonalLoop=1;jettySize=auto;html=1;strokeColor=default;align=center;verticalAlign=middle;fontFamily=Helvetica;fontSize=11;fontColor=default;labelBackgroundColor=default;startFill=0;endArrow=none;" parent="1" source="rsgTIMn-WzFMBPmV8Hxk-24" target="rsgTIMn-WzFMBPmV8Hxk-49" edge="1">
          <mxGeometry relative="1" as="geometry" />
        </mxCell>
        <mxCell id="rsgTIMn-WzFMBPmV8Hxk-174" value="1" style="edgeLabel;html=1;align=center;verticalAlign=middle;resizable=0;points=[];fontFamily=Helvetica;fontSize=11;fontColor=default;labelBackgroundColor=default;" parent="rsgTIMn-WzFMBPmV8Hxk-50" vertex="1" connectable="0">
          <mxGeometry x="-0.4603" relative="1" as="geometry">
            <mxPoint as="offset" />
          </mxGeometry>
        </mxCell>
        <mxCell id="rsgTIMn-WzFMBPmV8Hxk-139" style="edgeStyle=orthogonalEdgeStyle;shape=connector;rounded=0;orthogonalLoop=1;jettySize=auto;html=1;entryX=1;entryY=0.5;entryDx=0;entryDy=0;strokeColor=default;align=center;verticalAlign=middle;fontFamily=Helvetica;fontSize=11;fontColor=default;labelBackgroundColor=default;startFill=0;endArrow=none;" parent="1" source="rsgTIMn-WzFMBPmV8Hxk-24" target="rsgTIMn-WzFMBPmV8Hxk-118" edge="1">
          <mxGeometry relative="1" as="geometry">
            <Array as="points">
              <mxPoint x="220" y="405" />
            </Array>
          </mxGeometry>
        </mxCell>
        <mxCell id="rsgTIMn-WzFMBPmV8Hxk-177" value="1" style="edgeLabel;html=1;align=center;verticalAlign=middle;resizable=0;points=[];fontFamily=Helvetica;fontSize=11;fontColor=default;labelBackgroundColor=default;" parent="rsgTIMn-WzFMBPmV8Hxk-139" vertex="1" connectable="0">
          <mxGeometry x="-0.8152" relative="1" as="geometry">
            <mxPoint as="offset" />
          </mxGeometry>
        </mxCell>
        <mxCell id="rsgTIMn-WzFMBPmV8Hxk-24" value="Customer" style="rounded=0;whiteSpace=wrap;html=1;fontSize=20;fontFamily=Lucida Console;" parent="1" vertex="1">
          <mxGeometry x="200" y="300" width="160" height="60" as="geometry" />
        </mxCell>
        <mxCell id="rsgTIMn-WzFMBPmV8Hxk-121" style="edgeStyle=orthogonalEdgeStyle;shape=connector;rounded=0;orthogonalLoop=1;jettySize=auto;html=1;entryX=1;entryY=0.5;entryDx=0;entryDy=0;strokeColor=default;align=center;verticalAlign=middle;fontFamily=Helvetica;fontSize=11;fontColor=default;labelBackgroundColor=default;startFill=0;endArrow=none;" parent="1" source="rsgTIMn-WzFMBPmV8Hxk-26" target="rsgTIMn-WzFMBPmV8Hxk-49" edge="1">
          <mxGeometry relative="1" as="geometry">
            <Array as="points">
              <mxPoint x="620" y="470" />
            </Array>
          </mxGeometry>
        </mxCell>
        <mxCell id="rsgTIMn-WzFMBPmV8Hxk-176" value="1" style="edgeLabel;html=1;align=center;verticalAlign=middle;resizable=0;points=[];fontFamily=Helvetica;fontSize=11;fontColor=default;labelBackgroundColor=default;" parent="rsgTIMn-WzFMBPmV8Hxk-121" vertex="1" connectable="0">
          <mxGeometry x="-0.8875" y="-1" relative="1" as="geometry">
            <mxPoint as="offset" />
          </mxGeometry>
        </mxCell>
        <mxCell id="rsgTIMn-WzFMBPmV8Hxk-157" style="edgeStyle=orthogonalEdgeStyle;shape=connector;rounded=0;orthogonalLoop=1;jettySize=auto;html=1;entryX=0.5;entryY=0;entryDx=0;entryDy=0;strokeColor=default;align=center;verticalAlign=middle;fontFamily=Helvetica;fontSize=11;fontColor=default;labelBackgroundColor=default;startFill=0;endArrow=none;exitX=0.334;exitY=0.997;exitDx=0;exitDy=0;exitPerimeter=0;" parent="1" source="rsgTIMn-WzFMBPmV8Hxk-26" target="rsgTIMn-WzFMBPmV8Hxk-148" edge="1">
          <mxGeometry relative="1" as="geometry" />
        </mxCell>
        <mxCell id="rsgTIMn-WzFMBPmV8Hxk-161" value="m" style="edgeLabel;html=1;align=center;verticalAlign=middle;resizable=0;points=[];fontFamily=Helvetica;fontSize=11;fontColor=default;labelBackgroundColor=default;" parent="rsgTIMn-WzFMBPmV8Hxk-157" vertex="1" connectable="0">
          <mxGeometry x="-0.8727" y="-1" relative="1" as="geometry">
            <mxPoint as="offset" />
          </mxGeometry>
        </mxCell>
        <mxCell id="rsgTIMn-WzFMBPmV8Hxk-26" value="Employee" style="rounded=0;whiteSpace=wrap;html=1;fontSize=20;fontFamily=Lucida Console;" parent="1" vertex="1">
          <mxGeometry x="590" y="305" width="160" height="60" as="geometry" />
        </mxCell>
        <mxCell id="rsgTIMn-WzFMBPmV8Hxk-30" style="rounded=0;orthogonalLoop=1;jettySize=auto;html=1;entryX=0.25;entryY=0;entryDx=0;entryDy=0;strokeColor=default;align=center;verticalAlign=middle;fontFamily=Helvetica;fontSize=11;fontColor=default;labelBackgroundColor=default;endArrow=classic;" parent="1" source="rsgTIMn-WzFMBPmV8Hxk-28" target="rsgTIMn-WzFMBPmV8Hxk-24" edge="1">
          <mxGeometry relative="1" as="geometry" />
        </mxCell>
        <mxCell id="rsgTIMn-WzFMBPmV8Hxk-28" value="address" style="ellipse;whiteSpace=wrap;html=1;fontFamily=Lucida Console;" parent="1" vertex="1">
          <mxGeometry x="120" y="220" width="90" height="50" as="geometry" />
        </mxCell>
        <mxCell id="rsgTIMn-WzFMBPmV8Hxk-31" value="" style="rounded=0;orthogonalLoop=1;jettySize=auto;html=1;" parent="1" source="rsgTIMn-WzFMBPmV8Hxk-29" target="rsgTIMn-WzFMBPmV8Hxk-24" edge="1">
          <mxGeometry relative="1" as="geometry" />
        </mxCell>
        <mxCell id="rsgTIMn-WzFMBPmV8Hxk-29" value="zip_code" style="ellipse;whiteSpace=wrap;html=1;fontFamily=Lucida Console;" parent="1" vertex="1">
          <mxGeometry x="80" y="290" width="90" height="50" as="geometry" />
        </mxCell>
        <mxCell id="rsgTIMn-WzFMBPmV8Hxk-32" value="Role" style="rounded=0;whiteSpace=wrap;html=1;fontSize=20;fontFamily=Lucida Console;" parent="1" vertex="1">
          <mxGeometry x="20" y="90" width="120" height="60" as="geometry" />
        </mxCell>
        <mxCell id="rsgTIMn-WzFMBPmV8Hxk-34" style="rounded=0;orthogonalLoop=1;jettySize=auto;html=1;entryX=0.25;entryY=0;entryDx=0;entryDy=0;strokeColor=default;align=center;verticalAlign=middle;fontFamily=Helvetica;fontSize=11;fontColor=default;labelBackgroundColor=default;startFill=0;endArrow=none;" parent="1" source="rsgTIMn-WzFMBPmV8Hxk-33" target="rsgTIMn-WzFMBPmV8Hxk-32" edge="1">
          <mxGeometry relative="1" as="geometry" />
        </mxCell>
        <mxCell id="rsgTIMn-WzFMBPmV8Hxk-33" value="&lt;u&gt;role_id&lt;/u&gt;" style="ellipse;whiteSpace=wrap;html=1;fontFamily=Lucida Console;" parent="1" vertex="1">
          <mxGeometry x="-70" y="10" width="90" height="50" as="geometry" />
        </mxCell>
        <mxCell id="rsgTIMn-WzFMBPmV8Hxk-36" value="" style="rounded=0;orthogonalLoop=1;jettySize=auto;html=1;strokeColor=default;align=center;verticalAlign=middle;fontFamily=Helvetica;fontSize=11;fontColor=default;labelBackgroundColor=default;startFill=0;endArrow=none;" parent="1" source="rsgTIMn-WzFMBPmV8Hxk-35" target="rsgTIMn-WzFMBPmV8Hxk-32" edge="1">
          <mxGeometry relative="1" as="geometry" />
        </mxCell>
        <mxCell id="rsgTIMn-WzFMBPmV8Hxk-35" value="role_name" style="ellipse;whiteSpace=wrap;html=1;fontFamily=Lucida Console;" parent="1" vertex="1">
          <mxGeometry x="40" y="10" width="90" height="50" as="geometry" />
        </mxCell>
        <mxCell id="rsgTIMn-WzFMBPmV8Hxk-38" value="" style="rounded=0;orthogonalLoop=1;jettySize=auto;html=1;strokeColor=default;align=center;verticalAlign=middle;fontFamily=Helvetica;fontSize=11;fontColor=default;labelBackgroundColor=default;startFill=0;endArrow=none;" parent="1" source="rsgTIMn-WzFMBPmV8Hxk-37" target="rsgTIMn-WzFMBPmV8Hxk-26" edge="1">
          <mxGeometry relative="1" as="geometry" />
        </mxCell>
        <mxCell id="rsgTIMn-WzFMBPmV8Hxk-37" value="hired_date" style="ellipse;whiteSpace=wrap;html=1;fontFamily=Lucida Console;" parent="1" vertex="1">
          <mxGeometry x="680" y="240" width="110" height="50" as="geometry" />
        </mxCell>
        <mxCell id="rsgTIMn-WzFMBPmV8Hxk-41" value="" style="rounded=0;orthogonalLoop=1;jettySize=auto;html=1;strokeColor=default;align=center;verticalAlign=middle;fontFamily=Helvetica;fontSize=11;fontColor=default;labelBackgroundColor=default;startFill=0;endArrow=none;" parent="1" source="rsgTIMn-WzFMBPmV8Hxk-39" target="rsgTIMn-WzFMBPmV8Hxk-26" edge="1">
          <mxGeometry relative="1" as="geometry" />
        </mxCell>
        <mxCell id="rsgTIMn-WzFMBPmV8Hxk-39" value="salary" style="ellipse;whiteSpace=wrap;html=1;fontFamily=Lucida Console;" parent="1" vertex="1">
          <mxGeometry x="770" y="290" width="110" height="40" as="geometry" />
        </mxCell>
        <mxCell id="rsgTIMn-WzFMBPmV8Hxk-46" value="" style="rounded=0;orthogonalLoop=1;jettySize=auto;html=1;strokeColor=default;align=center;verticalAlign=middle;fontFamily=Helvetica;fontSize=11;fontColor=default;labelBackgroundColor=default;startFill=0;endArrow=none;" parent="1" source="rsgTIMn-WzFMBPmV8Hxk-42" target="rsgTIMn-WzFMBPmV8Hxk-2" edge="1">
          <mxGeometry relative="1" as="geometry" />
        </mxCell>
        <mxCell id="rsgTIMn-WzFMBPmV8Hxk-42" value="&lt;u&gt;order_id&lt;/u&gt;" style="ellipse;whiteSpace=wrap;html=1;fontFamily=Lucida Console;" parent="1" vertex="1">
          <mxGeometry x="540" y="570" width="90" height="50" as="geometry" />
        </mxCell>
        <mxCell id="rsgTIMn-WzFMBPmV8Hxk-45" value="" style="rounded=0;orthogonalLoop=1;jettySize=auto;html=1;strokeColor=default;align=center;verticalAlign=middle;fontFamily=Helvetica;fontSize=11;fontColor=default;labelBackgroundColor=default;startFill=0;endArrow=none;" parent="1" source="rsgTIMn-WzFMBPmV8Hxk-43" target="rsgTIMn-WzFMBPmV8Hxk-2" edge="1">
          <mxGeometry relative="1" as="geometry" />
        </mxCell>
        <mxCell id="rsgTIMn-WzFMBPmV8Hxk-43" value="total_price" style="ellipse;whiteSpace=wrap;html=1;fontFamily=Lucida Console;" parent="1" vertex="1">
          <mxGeometry x="515" y="630" width="100" height="50" as="geometry" />
        </mxCell>
        <mxCell id="rsgTIMn-WzFMBPmV8Hxk-48" style="rounded=0;orthogonalLoop=1;jettySize=auto;html=1;entryX=0;entryY=0.75;entryDx=0;entryDy=0;strokeColor=default;align=center;verticalAlign=middle;fontFamily=Helvetica;fontSize=11;fontColor=default;labelBackgroundColor=default;startFill=0;endArrow=none;" parent="1" source="rsgTIMn-WzFMBPmV8Hxk-44" target="rsgTIMn-WzFMBPmV8Hxk-2" edge="1">
          <mxGeometry relative="1" as="geometry" />
        </mxCell>
        <mxCell id="rsgTIMn-WzFMBPmV8Hxk-44" value="note" style="ellipse;whiteSpace=wrap;html=1;fontFamily=Lucida Console;" parent="1" vertex="1">
          <mxGeometry x="250" y="580" width="100" height="50" as="geometry" />
        </mxCell>
        <mxCell id="rsgTIMn-WzFMBPmV8Hxk-51" style="edgeStyle=orthogonalEdgeStyle;rounded=0;orthogonalLoop=1;jettySize=auto;html=1;entryX=-0.007;entryY=0.344;entryDx=0;entryDy=0;entryPerimeter=0;exitX=0.5;exitY=1;exitDx=0;exitDy=0;strokeColor=default;align=center;verticalAlign=middle;fontFamily=Helvetica;fontSize=11;fontColor=default;labelBackgroundColor=default;startFill=0;endArrow=none;" parent="1" source="rsgTIMn-WzFMBPmV8Hxk-49" target="rsgTIMn-WzFMBPmV8Hxk-2" edge="1">
          <mxGeometry relative="1" as="geometry">
            <mxPoint x="370" y="550" as="targetPoint" />
          </mxGeometry>
        </mxCell>
        <mxCell id="rsgTIMn-WzFMBPmV8Hxk-175" value="m" style="edgeLabel;html=1;align=center;verticalAlign=middle;resizable=0;points=[];fontFamily=Helvetica;fontSize=11;fontColor=default;labelBackgroundColor=default;" parent="rsgTIMn-WzFMBPmV8Hxk-51" vertex="1" connectable="0">
          <mxGeometry x="0.7612" y="3" relative="1" as="geometry">
            <mxPoint as="offset" />
          </mxGeometry>
        </mxCell>
        <mxCell id="rsgTIMn-WzFMBPmV8Hxk-49" value="place" style="rhombus;whiteSpace=wrap;html=1;" parent="1" vertex="1">
          <mxGeometry x="240" y="430" width="80" height="80" as="geometry" />
        </mxCell>
        <mxCell id="rsgTIMn-WzFMBPmV8Hxk-55" value="" style="edgeStyle=none;shape=connector;rounded=0;orthogonalLoop=1;jettySize=auto;html=1;strokeColor=default;align=center;verticalAlign=middle;fontFamily=Helvetica;fontSize=11;fontColor=default;labelBackgroundColor=default;startFill=0;endArrow=none;" parent="1" source="rsgTIMn-WzFMBPmV8Hxk-54" target="rsgTIMn-WzFMBPmV8Hxk-2" edge="1">
          <mxGeometry relative="1" as="geometry" />
        </mxCell>
        <mxCell id="rsgTIMn-WzFMBPmV8Hxk-54" value="status" style="ellipse;whiteSpace=wrap;html=1;fontFamily=Lucida Console;" parent="1" vertex="1">
          <mxGeometry x="250" y="640" width="100" height="50" as="geometry" />
        </mxCell>
        <mxCell id="rsgTIMn-WzFMBPmV8Hxk-57" value="" style="edgeStyle=none;shape=connector;rounded=0;orthogonalLoop=1;jettySize=auto;html=1;strokeColor=default;align=center;verticalAlign=middle;fontFamily=Helvetica;fontSize=11;fontColor=default;labelBackgroundColor=default;startFill=0;endArrow=none;" parent="1" source="rsgTIMn-WzFMBPmV8Hxk-56" target="rsgTIMn-WzFMBPmV8Hxk-49" edge="1">
          <mxGeometry relative="1" as="geometry" />
        </mxCell>
        <mxCell id="rsgTIMn-WzFMBPmV8Hxk-56" value="order_date" style="ellipse;whiteSpace=wrap;html=1;fontFamily=Lucida Console;" parent="1" vertex="1">
          <mxGeometry x="90" y="450" width="100" height="50" as="geometry" />
        </mxCell>
        <mxCell id="rsgTIMn-WzFMBPmV8Hxk-62" value="" style="edgeStyle=none;shape=connector;rounded=0;orthogonalLoop=1;jettySize=auto;html=1;strokeColor=default;align=center;verticalAlign=middle;fontFamily=Helvetica;fontSize=11;fontColor=default;labelBackgroundColor=default;startFill=0;endArrow=none;" parent="1" source="rsgTIMn-WzFMBPmV8Hxk-58" target="rsgTIMn-WzFMBPmV8Hxk-61" edge="1">
          <mxGeometry relative="1" as="geometry" />
        </mxCell>
        <mxCell id="rsgTIMn-WzFMBPmV8Hxk-58" value="OrderItem" style="rounded=0;whiteSpace=wrap;html=1;fontSize=20;fontFamily=Lucida Console;" parent="1" vertex="1">
          <mxGeometry x="380" y="780" width="120" height="60" as="geometry" />
        </mxCell>
        <mxCell id="rsgTIMn-WzFMBPmV8Hxk-60" value="" style="edgeStyle=none;shape=connector;rounded=0;orthogonalLoop=1;jettySize=auto;html=1;strokeColor=default;align=center;verticalAlign=middle;fontFamily=Helvetica;fontSize=11;fontColor=default;labelBackgroundColor=default;startFill=0;endArrow=none;" parent="1" source="rsgTIMn-WzFMBPmV8Hxk-59" target="rsgTIMn-WzFMBPmV8Hxk-58" edge="1">
          <mxGeometry relative="1" as="geometry" />
        </mxCell>
        <mxCell id="rsgTIMn-WzFMBPmV8Hxk-59" value="&lt;u&gt;order_item_id&lt;/u&gt;" style="ellipse;whiteSpace=wrap;html=1;fontFamily=Lucida Console;" parent="1" vertex="1">
          <mxGeometry x="520" y="710" width="120" height="60" as="geometry" />
        </mxCell>
        <mxCell id="rsgTIMn-WzFMBPmV8Hxk-61" value="quantity" style="ellipse;whiteSpace=wrap;html=1;fontFamily=Lucida Console;" parent="1" vertex="1">
          <mxGeometry x="550" y="790" width="100" height="50" as="geometry" />
        </mxCell>
        <mxCell id="rsgTIMn-WzFMBPmV8Hxk-66" style="edgeStyle=none;shape=connector;rounded=0;orthogonalLoop=1;jettySize=auto;html=1;entryX=0.5;entryY=1;entryDx=0;entryDy=0;strokeColor=default;align=center;verticalAlign=middle;fontFamily=Helvetica;fontSize=11;fontColor=default;labelBackgroundColor=default;startFill=0;endArrow=none;" parent="1" source="rsgTIMn-WzFMBPmV8Hxk-63" target="rsgTIMn-WzFMBPmV8Hxk-2" edge="1">
          <mxGeometry relative="1" as="geometry" />
        </mxCell>
        <mxCell id="rsgTIMn-WzFMBPmV8Hxk-172" value="1" style="edgeLabel;html=1;align=center;verticalAlign=middle;resizable=0;points=[];fontFamily=Helvetica;fontSize=11;fontColor=default;labelBackgroundColor=default;" parent="rsgTIMn-WzFMBPmV8Hxk-66" vertex="1" connectable="0">
          <mxGeometry x="0.4042" relative="1" as="geometry">
            <mxPoint as="offset" />
          </mxGeometry>
        </mxCell>
        <mxCell id="rsgTIMn-WzFMBPmV8Hxk-67" value="" style="edgeStyle=none;shape=connector;rounded=0;orthogonalLoop=1;jettySize=auto;html=1;strokeColor=default;align=center;verticalAlign=middle;fontFamily=Helvetica;fontSize=11;fontColor=default;labelBackgroundColor=default;startFill=0;endArrow=none;" parent="1" source="rsgTIMn-WzFMBPmV8Hxk-63" target="rsgTIMn-WzFMBPmV8Hxk-58" edge="1">
          <mxGeometry relative="1" as="geometry" />
        </mxCell>
        <mxCell id="rsgTIMn-WzFMBPmV8Hxk-173" value="m" style="edgeLabel;html=1;align=center;verticalAlign=middle;resizable=0;points=[];fontFamily=Helvetica;fontSize=11;fontColor=default;labelBackgroundColor=default;" parent="rsgTIMn-WzFMBPmV8Hxk-67" vertex="1" connectable="0">
          <mxGeometry x="0.3561" relative="1" as="geometry">
            <mxPoint as="offset" />
          </mxGeometry>
        </mxCell>
        <mxCell id="rsgTIMn-WzFMBPmV8Hxk-63" value="has" style="rhombus;whiteSpace=wrap;html=1;" parent="1" vertex="1">
          <mxGeometry x="400" y="640" width="80" height="80" as="geometry" />
        </mxCell>
        <mxCell id="rsgTIMn-WzFMBPmV8Hxk-70" value="" style="edgeStyle=none;shape=connector;rounded=0;orthogonalLoop=1;jettySize=auto;html=1;strokeColor=default;align=center;verticalAlign=middle;fontFamily=Helvetica;fontSize=11;fontColor=default;labelBackgroundColor=default;startFill=0;endArrow=none;" parent="1" source="rsgTIMn-WzFMBPmV8Hxk-69" target="rsgTIMn-WzFMBPmV8Hxk-4" edge="1">
          <mxGeometry relative="1" as="geometry" />
        </mxCell>
        <mxCell id="rsgTIMn-WzFMBPmV8Hxk-69" value="&lt;u&gt;menu_id&lt;/u&gt;" style="ellipse;whiteSpace=wrap;html=1;fontFamily=Lucida Console;" parent="1" vertex="1">
          <mxGeometry x="630" y="1050" width="110" height="50" as="geometry" />
        </mxCell>
        <mxCell id="rsgTIMn-WzFMBPmV8Hxk-82" style="edgeStyle=none;shape=connector;rounded=0;orthogonalLoop=1;jettySize=auto;html=1;entryX=0.25;entryY=1;entryDx=0;entryDy=0;strokeColor=default;align=center;verticalAlign=middle;fontFamily=Helvetica;fontSize=11;fontColor=default;labelBackgroundColor=default;startFill=0;endArrow=none;" parent="1" source="rsgTIMn-WzFMBPmV8Hxk-71" target="rsgTIMn-WzFMBPmV8Hxk-4" edge="1">
          <mxGeometry relative="1" as="geometry" />
        </mxCell>
        <mxCell id="rsgTIMn-WzFMBPmV8Hxk-71" value="name" style="ellipse;whiteSpace=wrap;html=1;fontFamily=Lucida Console;" parent="1" vertex="1">
          <mxGeometry x="690" y="1110" width="100" height="50" as="geometry" />
        </mxCell>
        <mxCell id="rsgTIMn-WzFMBPmV8Hxk-72" value="description" style="ellipse;whiteSpace=wrap;html=1;fontFamily=Lucida Console;" parent="1" vertex="1">
          <mxGeometry x="910" y="1080" width="100" height="50" as="geometry" />
        </mxCell>
        <mxCell id="rsgTIMn-WzFMBPmV8Hxk-80" value="" style="edgeStyle=none;shape=connector;rounded=0;orthogonalLoop=1;jettySize=auto;html=1;strokeColor=default;align=center;verticalAlign=middle;fontFamily=Helvetica;fontSize=11;fontColor=default;labelBackgroundColor=default;startFill=0;endArrow=none;" parent="1" source="rsgTIMn-WzFMBPmV8Hxk-73" target="rsgTIMn-WzFMBPmV8Hxk-4" edge="1">
          <mxGeometry relative="1" as="geometry" />
        </mxCell>
        <mxCell id="rsgTIMn-WzFMBPmV8Hxk-73" value="price" style="ellipse;whiteSpace=wrap;html=1;fontFamily=Lucida Console;" parent="1" vertex="1">
          <mxGeometry x="950" y="1020" width="100" height="50" as="geometry" />
        </mxCell>
        <mxCell id="rsgTIMn-WzFMBPmV8Hxk-79" style="edgeStyle=none;shape=connector;rounded=0;orthogonalLoop=1;jettySize=auto;html=1;strokeColor=default;align=center;verticalAlign=middle;fontFamily=Helvetica;fontSize=11;fontColor=default;labelBackgroundColor=default;startFill=0;endArrow=none;entryX=1;entryY=0.25;entryDx=0;entryDy=0;" parent="1" source="rsgTIMn-WzFMBPmV8Hxk-74" target="rsgTIMn-WzFMBPmV8Hxk-4" edge="1">
          <mxGeometry relative="1" as="geometry">
            <mxPoint x="900" y="1020" as="targetPoint" />
          </mxGeometry>
        </mxCell>
        <mxCell id="rsgTIMn-WzFMBPmV8Hxk-74" value="is_available" style="ellipse;whiteSpace=wrap;html=1;fontFamily=Lucida Console;" parent="1" vertex="1">
          <mxGeometry x="960" y="960" width="100" height="50" as="geometry" />
        </mxCell>
        <mxCell id="rsgTIMn-WzFMBPmV8Hxk-75" value="img_url" style="ellipse;whiteSpace=wrap;html=1;fontFamily=Lucida Console;" parent="1" vertex="1">
          <mxGeometry x="880" y="920" width="100" height="50" as="geometry" />
        </mxCell>
        <mxCell id="rsgTIMn-WzFMBPmV8Hxk-78" style="edgeStyle=none;shape=connector;rounded=0;orthogonalLoop=1;jettySize=auto;html=1;entryX=0.833;entryY=-0.017;entryDx=0;entryDy=0;entryPerimeter=0;strokeColor=default;align=center;verticalAlign=middle;fontFamily=Helvetica;fontSize=11;fontColor=default;labelBackgroundColor=default;startFill=0;endArrow=none;" parent="1" source="rsgTIMn-WzFMBPmV8Hxk-75" target="rsgTIMn-WzFMBPmV8Hxk-4" edge="1">
          <mxGeometry relative="1" as="geometry" />
        </mxCell>
        <mxCell id="rsgTIMn-WzFMBPmV8Hxk-81" style="edgeStyle=none;shape=connector;rounded=0;orthogonalLoop=1;jettySize=auto;html=1;entryX=0.896;entryY=1.011;entryDx=0;entryDy=0;entryPerimeter=0;strokeColor=default;align=center;verticalAlign=middle;fontFamily=Helvetica;fontSize=11;fontColor=default;labelBackgroundColor=default;startFill=0;endArrow=none;" parent="1" source="rsgTIMn-WzFMBPmV8Hxk-72" target="rsgTIMn-WzFMBPmV8Hxk-4" edge="1">
          <mxGeometry relative="1" as="geometry" />
        </mxCell>
        <mxCell id="rsgTIMn-WzFMBPmV8Hxk-83" value="Category" style="rounded=0;whiteSpace=wrap;html=1;fontSize=20;fontFamily=Lucida Console;" parent="1" vertex="1">
          <mxGeometry x="770" y="1280" width="120" height="60" as="geometry" />
        </mxCell>
        <mxCell id="rsgTIMn-WzFMBPmV8Hxk-84" value="&lt;u&gt;cat_id&lt;/u&gt;" style="ellipse;whiteSpace=wrap;html=1;fontFamily=Lucida Console;" parent="1" vertex="1">
          <mxGeometry x="660" y="1380" width="110" height="50" as="geometry" />
        </mxCell>
        <mxCell id="rsgTIMn-WzFMBPmV8Hxk-85" style="edgeStyle=none;shape=connector;rounded=0;orthogonalLoop=1;jettySize=auto;html=1;entryX=0;entryY=1;entryDx=0;entryDy=0;strokeColor=default;align=center;verticalAlign=middle;fontFamily=Helvetica;fontSize=11;fontColor=default;labelBackgroundColor=default;startFill=0;endArrow=none;" parent="1" source="rsgTIMn-WzFMBPmV8Hxk-84" target="rsgTIMn-WzFMBPmV8Hxk-83" edge="1">
          <mxGeometry relative="1" as="geometry" />
        </mxCell>
        <mxCell id="rsgTIMn-WzFMBPmV8Hxk-87" style="edgeStyle=none;shape=connector;rounded=0;orthogonalLoop=1;jettySize=auto;html=1;entryX=1;entryY=1;entryDx=0;entryDy=0;strokeColor=default;align=center;verticalAlign=middle;fontFamily=Helvetica;fontSize=11;fontColor=default;labelBackgroundColor=default;startFill=0;endArrow=none;" parent="1" source="rsgTIMn-WzFMBPmV8Hxk-86" target="rsgTIMn-WzFMBPmV8Hxk-83" edge="1">
          <mxGeometry relative="1" as="geometry" />
        </mxCell>
        <mxCell id="rsgTIMn-WzFMBPmV8Hxk-86" value="cat_name" style="ellipse;whiteSpace=wrap;html=1;fontFamily=Lucida Console;" parent="1" vertex="1">
          <mxGeometry x="900" y="1380" width="100" height="50" as="geometry" />
        </mxCell>
        <mxCell id="rsgTIMn-WzFMBPmV8Hxk-90" value="" style="edgeStyle=orthogonalEdgeStyle;shape=connector;rounded=0;orthogonalLoop=1;jettySize=auto;html=1;strokeColor=default;align=center;verticalAlign=middle;fontFamily=Helvetica;fontSize=11;fontColor=default;labelBackgroundColor=default;startFill=0;endArrow=none;" parent="1" source="rsgTIMn-WzFMBPmV8Hxk-88" target="rsgTIMn-WzFMBPmV8Hxk-83" edge="1">
          <mxGeometry relative="1" as="geometry" />
        </mxCell>
        <mxCell id="rsgTIMn-WzFMBPmV8Hxk-168" value="1" style="edgeLabel;html=1;align=center;verticalAlign=middle;resizable=0;points=[];fontFamily=Helvetica;fontSize=11;fontColor=default;labelBackgroundColor=default;" parent="rsgTIMn-WzFMBPmV8Hxk-90" vertex="1" connectable="0">
          <mxGeometry x="0.4383" relative="1" as="geometry">
            <mxPoint as="offset" />
          </mxGeometry>
        </mxCell>
        <mxCell id="rsgTIMn-WzFMBPmV8Hxk-88" value="has" style="rhombus;whiteSpace=wrap;html=1;" parent="1" vertex="1">
          <mxGeometry x="790" y="1150" width="80" height="80" as="geometry" />
        </mxCell>
        <mxCell id="rsgTIMn-WzFMBPmV8Hxk-92" value="&lt;u&gt;ing_id&lt;/u&gt;" style="ellipse;whiteSpace=wrap;html=1;fontFamily=Lucida Console;" parent="1" vertex="1">
          <mxGeometry x="1320" y="1270" width="110" height="50" as="geometry" />
        </mxCell>
        <mxCell id="rsgTIMn-WzFMBPmV8Hxk-96" value="" style="edgeStyle=none;shape=connector;rounded=0;orthogonalLoop=1;jettySize=auto;html=1;strokeColor=default;align=center;verticalAlign=middle;fontFamily=Helvetica;fontSize=11;fontColor=default;labelBackgroundColor=default;startFill=0;endArrow=none;" parent="1" source="rsgTIMn-WzFMBPmV8Hxk-93" target="rsgTIMn-WzFMBPmV8Hxk-5" edge="1">
          <mxGeometry relative="1" as="geometry" />
        </mxCell>
        <mxCell id="rsgTIMn-WzFMBPmV8Hxk-93" value="name" style="ellipse;whiteSpace=wrap;html=1;fontFamily=Lucida Console;" parent="1" vertex="1">
          <mxGeometry x="1410" y="1200" width="100" height="50" as="geometry" />
        </mxCell>
        <mxCell id="rsgTIMn-WzFMBPmV8Hxk-95" style="edgeStyle=none;shape=connector;rounded=0;orthogonalLoop=1;jettySize=auto;html=1;entryX=0.879;entryY=1.055;entryDx=0;entryDy=0;entryPerimeter=0;strokeColor=default;align=center;verticalAlign=middle;fontFamily=Helvetica;fontSize=11;fontColor=default;labelBackgroundColor=default;startFill=0;endArrow=none;" parent="1" source="rsgTIMn-WzFMBPmV8Hxk-92" target="rsgTIMn-WzFMBPmV8Hxk-5" edge="1">
          <mxGeometry relative="1" as="geometry" />
        </mxCell>
        <mxCell id="rsgTIMn-WzFMBPmV8Hxk-99" value="" style="edgeStyle=none;shape=connector;rounded=0;orthogonalLoop=1;jettySize=auto;html=1;strokeColor=default;align=center;verticalAlign=middle;fontFamily=Helvetica;fontSize=11;fontColor=default;labelBackgroundColor=default;startFill=0;endArrow=none;" parent="1" source="rsgTIMn-WzFMBPmV8Hxk-97" target="rsgTIMn-WzFMBPmV8Hxk-5" edge="1">
          <mxGeometry relative="1" as="geometry" />
        </mxCell>
        <mxCell id="rsgTIMn-WzFMBPmV8Hxk-171" value="n" style="edgeLabel;html=1;align=center;verticalAlign=middle;resizable=0;points=[];fontFamily=Helvetica;fontSize=11;fontColor=default;labelBackgroundColor=default;" parent="rsgTIMn-WzFMBPmV8Hxk-99" vertex="1" connectable="0">
          <mxGeometry x="0.6424" relative="1" as="geometry">
            <mxPoint as="offset" />
          </mxGeometry>
        </mxCell>
        <mxCell id="rsgTIMn-WzFMBPmV8Hxk-97" value="include" style="rhombus;whiteSpace=wrap;html=1;" parent="1" vertex="1">
          <mxGeometry x="1040" y="1160" width="80" height="80" as="geometry" />
        </mxCell>
        <mxCell id="rsgTIMn-WzFMBPmV8Hxk-104" style="edgeStyle=orthogonalEdgeStyle;shape=connector;rounded=0;orthogonalLoop=1;jettySize=auto;html=1;strokeColor=default;align=center;verticalAlign=middle;fontFamily=Helvetica;fontSize=11;fontColor=default;labelBackgroundColor=default;startFill=0;endArrow=none;" parent="1" source="rsgTIMn-WzFMBPmV8Hxk-102" edge="1">
          <mxGeometry relative="1" as="geometry">
            <mxPoint x="450" y="850" as="targetPoint" />
          </mxGeometry>
        </mxCell>
        <mxCell id="rsgTIMn-WzFMBPmV8Hxk-165" value="m" style="edgeLabel;html=1;align=center;verticalAlign=middle;resizable=0;points=[];fontFamily=Helvetica;fontSize=11;fontColor=default;labelBackgroundColor=default;" parent="rsgTIMn-WzFMBPmV8Hxk-104" vertex="1" connectable="0">
          <mxGeometry x="0.8211" y="-1" relative="1" as="geometry">
            <mxPoint as="offset" />
          </mxGeometry>
        </mxCell>
        <mxCell id="rsgTIMn-WzFMBPmV8Hxk-102" value="include" style="rhombus;whiteSpace=wrap;html=1;" parent="1" vertex="1">
          <mxGeometry x="550" y="905" width="80" height="80" as="geometry" />
        </mxCell>
        <mxCell id="rsgTIMn-WzFMBPmV8Hxk-115" value="" style="edgeStyle=none;shape=connector;rounded=0;orthogonalLoop=1;jettySize=auto;html=1;strokeColor=default;align=center;verticalAlign=middle;fontFamily=Helvetica;fontSize=11;fontColor=default;labelBackgroundColor=default;startFill=0;endArrow=none;" parent="1" source="rsgTIMn-WzFMBPmV8Hxk-108" target="rsgTIMn-WzFMBPmV8Hxk-3" edge="1">
          <mxGeometry relative="1" as="geometry" />
        </mxCell>
        <mxCell id="rsgTIMn-WzFMBPmV8Hxk-108" value="event_date" style="ellipse;whiteSpace=wrap;html=1;fontFamily=Lucida Console;" parent="1" vertex="1">
          <mxGeometry x="-525" y="470" width="100" height="50" as="geometry" />
        </mxCell>
        <mxCell id="rsgTIMn-WzFMBPmV8Hxk-116" style="edgeStyle=none;shape=connector;rounded=0;orthogonalLoop=1;jettySize=auto;html=1;entryX=1;entryY=1;entryDx=0;entryDy=0;strokeColor=default;align=center;verticalAlign=middle;fontFamily=Helvetica;fontSize=11;fontColor=default;labelBackgroundColor=default;startFill=0;endArrow=none;" parent="1" source="rsgTIMn-WzFMBPmV8Hxk-109" target="rsgTIMn-WzFMBPmV8Hxk-3" edge="1">
          <mxGeometry relative="1" as="geometry" />
        </mxCell>
        <mxCell id="rsgTIMn-WzFMBPmV8Hxk-109" value="status" style="ellipse;whiteSpace=wrap;html=1;fontFamily=Lucida Console;" parent="1" vertex="1">
          <mxGeometry x="-250" y="490" width="100" height="50" as="geometry" />
        </mxCell>
        <mxCell id="rsgTIMn-WzFMBPmV8Hxk-113" value="" style="edgeStyle=none;shape=connector;rounded=0;orthogonalLoop=1;jettySize=auto;html=1;strokeColor=default;align=center;verticalAlign=middle;fontFamily=Helvetica;fontSize=11;fontColor=default;labelBackgroundColor=default;startFill=0;endArrow=none;" parent="1" source="rsgTIMn-WzFMBPmV8Hxk-110" target="rsgTIMn-WzFMBPmV8Hxk-3" edge="1">
          <mxGeometry relative="1" as="geometry" />
        </mxCell>
        <mxCell id="rsgTIMn-WzFMBPmV8Hxk-117" value="" style="edgeStyle=none;shape=connector;rounded=0;orthogonalLoop=1;jettySize=auto;html=1;strokeColor=default;align=center;verticalAlign=middle;fontFamily=Helvetica;fontSize=11;fontColor=default;labelBackgroundColor=default;startFill=0;endArrow=none;" parent="1" source="rsgTIMn-WzFMBPmV8Hxk-111" target="rsgTIMn-WzFMBPmV8Hxk-3" edge="1">
          <mxGeometry relative="1" as="geometry" />
        </mxCell>
        <mxCell id="rsgTIMn-WzFMBPmV8Hxk-111" value="num_of_people" style="ellipse;whiteSpace=wrap;html=1;fontFamily=Lucida Console;" parent="1" vertex="1">
          <mxGeometry x="-405" y="500" width="130" height="50" as="geometry" />
        </mxCell>
        <mxCell id="rsgTIMn-WzFMBPmV8Hxk-114" style="edgeStyle=none;shape=connector;rounded=0;orthogonalLoop=1;jettySize=auto;html=1;entryX=0.905;entryY=0.007;entryDx=0;entryDy=0;entryPerimeter=0;strokeColor=default;align=center;verticalAlign=middle;fontFamily=Helvetica;fontSize=11;fontColor=default;labelBackgroundColor=default;startFill=0;endArrow=none;" parent="1" source="rsgTIMn-WzFMBPmV8Hxk-106" target="rsgTIMn-WzFMBPmV8Hxk-3" edge="1">
          <mxGeometry relative="1" as="geometry" />
        </mxCell>
        <mxCell id="rsgTIMn-WzFMBPmV8Hxk-118" value="request" style="rhombus;whiteSpace=wrap;html=1;" parent="1" vertex="1">
          <mxGeometry x="-20" y="370" width="80" height="80" as="geometry" />
        </mxCell>
        <mxCell id="rsgTIMn-WzFMBPmV8Hxk-123" value="" style="edgeStyle=none;shape=connector;rounded=0;orthogonalLoop=1;jettySize=auto;html=1;strokeColor=default;align=center;verticalAlign=middle;fontFamily=Helvetica;fontSize=11;fontColor=default;labelBackgroundColor=default;startFill=0;endArrow=none;" parent="1" source="rsgTIMn-WzFMBPmV8Hxk-122" target="rsgTIMn-WzFMBPmV8Hxk-1" edge="1">
          <mxGeometry relative="1" as="geometry" />
        </mxCell>
        <mxCell id="rsgTIMn-WzFMBPmV8Hxk-145" value="m" style="edgeLabel;html=1;align=center;verticalAlign=middle;resizable=0;points=[];fontFamily=Helvetica;fontSize=11;fontColor=default;labelBackgroundColor=default;" parent="rsgTIMn-WzFMBPmV8Hxk-123" vertex="1" connectable="0">
          <mxGeometry x="0.5655" relative="1" as="geometry">
            <mxPoint as="offset" />
          </mxGeometry>
        </mxCell>
        <mxCell id="rsgTIMn-WzFMBPmV8Hxk-124" value="" style="edgeStyle=none;shape=connector;rounded=0;orthogonalLoop=1;jettySize=auto;html=1;strokeColor=default;align=center;verticalAlign=middle;fontFamily=Helvetica;fontSize=11;fontColor=default;labelBackgroundColor=default;startFill=0;endArrow=none;" parent="1" source="rsgTIMn-WzFMBPmV8Hxk-122" target="rsgTIMn-WzFMBPmV8Hxk-32" edge="1">
          <mxGeometry relative="1" as="geometry" />
        </mxCell>
        <mxCell id="rsgTIMn-WzFMBPmV8Hxk-143" value="1" style="edgeLabel;html=1;align=center;verticalAlign=middle;resizable=0;points=[];fontFamily=Helvetica;fontSize=11;fontColor=default;labelBackgroundColor=default;" parent="rsgTIMn-WzFMBPmV8Hxk-124" vertex="1" connectable="0">
          <mxGeometry x="0.4815" y="1" relative="1" as="geometry">
            <mxPoint as="offset" />
          </mxGeometry>
        </mxCell>
        <mxCell id="rsgTIMn-WzFMBPmV8Hxk-122" value="has" style="rhombus;whiteSpace=wrap;html=1;" parent="1" vertex="1">
          <mxGeometry x="220" y="80" width="80" height="80" as="geometry" />
        </mxCell>
        <mxCell id="rsgTIMn-WzFMBPmV8Hxk-135" value="Customer, Employee cover the User, but&lt;div&gt;doesn&#39;t overlap&lt;/div&gt;" style="text;html=1;align=center;verticalAlign=middle;resizable=0;points=[];autosize=1;strokeColor=none;fillColor=none;fontFamily=Helvetica;fontSize=11;fontColor=default;labelBackgroundColor=default;" parent="1" vertex="1">
          <mxGeometry x="360" y="310" width="220" height="40" as="geometry" />
        </mxCell>
        <mxCell id="rsgTIMn-WzFMBPmV8Hxk-141" style="edgeStyle=orthogonalEdgeStyle;shape=connector;rounded=0;orthogonalLoop=1;jettySize=auto;html=1;entryX=0;entryY=0.5;entryDx=0;entryDy=0;strokeColor=default;align=center;verticalAlign=middle;fontFamily=Helvetica;fontSize=11;fontColor=default;labelBackgroundColor=default;startFill=0;endArrow=none;" parent="1" source="rsgTIMn-WzFMBPmV8Hxk-140" target="rsgTIMn-WzFMBPmV8Hxk-3" edge="1">
          <mxGeometry relative="1" as="geometry">
            <Array as="points">
              <mxPoint x="-450" y="410" />
            </Array>
          </mxGeometry>
        </mxCell>
        <mxCell id="rsgTIMn-WzFMBPmV8Hxk-146" value="n" style="edgeLabel;html=1;align=center;verticalAlign=middle;resizable=0;points=[];fontFamily=Helvetica;fontSize=11;fontColor=default;labelBackgroundColor=default;" parent="rsgTIMn-WzFMBPmV8Hxk-141" vertex="1" connectable="0">
          <mxGeometry x="0.8523" y="-1" relative="1" as="geometry">
            <mxPoint as="offset" />
          </mxGeometry>
        </mxCell>
        <mxCell id="rsgTIMn-WzFMBPmV8Hxk-142" style="edgeStyle=orthogonalEdgeStyle;shape=connector;rounded=0;orthogonalLoop=1;jettySize=auto;html=1;entryX=0.5;entryY=1;entryDx=0;entryDy=0;strokeColor=default;align=center;verticalAlign=middle;fontFamily=Helvetica;fontSize=11;fontColor=default;labelBackgroundColor=default;startFill=0;endArrow=none;" parent="1" source="rsgTIMn-WzFMBPmV8Hxk-140" target="rsgTIMn-WzFMBPmV8Hxk-26" edge="1">
          <mxGeometry relative="1" as="geometry">
            <Array as="points">
              <mxPoint x="-450" y="-60" />
              <mxPoint x="970" y="-60" />
              <mxPoint x="970" y="470" />
              <mxPoint x="730" y="470" />
              <mxPoint x="730" y="365" />
            </Array>
          </mxGeometry>
        </mxCell>
        <mxCell id="QLyix1z5AnvZfs8qaq27-19" value="1" style="edgeLabel;html=1;align=center;verticalAlign=middle;resizable=0;points=[];" parent="rsgTIMn-WzFMBPmV8Hxk-142" vertex="1" connectable="0">
          <mxGeometry x="0.9396" y="-1" relative="1" as="geometry">
            <mxPoint as="offset" />
          </mxGeometry>
        </mxCell>
        <mxCell id="rsgTIMn-WzFMBPmV8Hxk-140" value="review" style="rhombus;whiteSpace=wrap;html=1;" parent="1" vertex="1">
          <mxGeometry x="-490" y="100" width="80" height="80" as="geometry" />
        </mxCell>
        <mxCell id="rsgTIMn-WzFMBPmV8Hxk-159" style="edgeStyle=orthogonalEdgeStyle;shape=connector;rounded=0;orthogonalLoop=1;jettySize=auto;html=1;entryX=0.5;entryY=0;entryDx=0;entryDy=0;strokeColor=default;align=center;verticalAlign=middle;fontFamily=Helvetica;fontSize=11;fontColor=default;labelBackgroundColor=default;startFill=0;endArrow=none;" parent="1" source="rsgTIMn-WzFMBPmV8Hxk-148" target="rsgTIMn-WzFMBPmV8Hxk-5" edge="1">
          <mxGeometry relative="1" as="geometry" />
        </mxCell>
        <mxCell id="rsgTIMn-WzFMBPmV8Hxk-163" value="n" style="edgeLabel;html=1;align=center;verticalAlign=middle;resizable=0;points=[];fontFamily=Helvetica;fontSize=11;fontColor=default;labelBackgroundColor=default;" parent="rsgTIMn-WzFMBPmV8Hxk-159" vertex="1" connectable="0">
          <mxGeometry x="0.9268" y="-1" relative="1" as="geometry">
            <mxPoint as="offset" />
          </mxGeometry>
        </mxCell>
        <mxCell id="rsgTIMn-WzFMBPmV8Hxk-148" value="update" style="rhombus;whiteSpace=wrap;html=1;" parent="1" vertex="1">
          <mxGeometry x="800" y="720" width="80" height="80" as="geometry" />
        </mxCell>
        <mxCell id="rsgTIMn-WzFMBPmV8Hxk-153" style="edgeStyle=none;shape=connector;rounded=0;orthogonalLoop=1;jettySize=auto;html=1;entryX=0.553;entryY=-0.055;entryDx=0;entryDy=0;entryPerimeter=0;strokeColor=default;align=center;verticalAlign=middle;fontFamily=Helvetica;fontSize=11;fontColor=default;labelBackgroundColor=default;startFill=0;endArrow=none;" parent="1" source="rsgTIMn-WzFMBPmV8Hxk-148" target="rsgTIMn-WzFMBPmV8Hxk-4" edge="1">
          <mxGeometry relative="1" as="geometry" />
        </mxCell>
        <mxCell id="rsgTIMn-WzFMBPmV8Hxk-162" value="n" style="edgeLabel;html=1;align=center;verticalAlign=middle;resizable=0;points=[];fontFamily=Helvetica;fontSize=11;fontColor=default;labelBackgroundColor=default;" parent="rsgTIMn-WzFMBPmV8Hxk-153" vertex="1" connectable="0">
          <mxGeometry x="0.8238" y="1" relative="1" as="geometry">
            <mxPoint as="offset" />
          </mxGeometry>
        </mxCell>
        <mxCell id="rsgTIMn-WzFMBPmV8Hxk-164" style="edgeStyle=orthogonalEdgeStyle;shape=connector;rounded=0;orthogonalLoop=1;jettySize=auto;html=1;entryX=0.354;entryY=-0.026;entryDx=0;entryDy=0;entryPerimeter=0;strokeColor=default;align=center;verticalAlign=middle;fontFamily=Helvetica;fontSize=11;fontColor=default;labelBackgroundColor=default;startFill=0;endArrow=none;" parent="1" source="rsgTIMn-WzFMBPmV8Hxk-102" target="rsgTIMn-WzFMBPmV8Hxk-4" edge="1">
          <mxGeometry relative="1" as="geometry" />
        </mxCell>
        <mxCell id="rsgTIMn-WzFMBPmV8Hxk-166" value="1" style="edgeLabel;html=1;align=center;verticalAlign=middle;resizable=0;points=[];fontFamily=Helvetica;fontSize=11;fontColor=default;labelBackgroundColor=default;" parent="rsgTIMn-WzFMBPmV8Hxk-164" vertex="1" connectable="0">
          <mxGeometry x="0.8498" y="1" relative="1" as="geometry">
            <mxPoint as="offset" />
          </mxGeometry>
        </mxCell>
        <mxCell id="QLyix1z5AnvZfs8qaq27-1" value="Promotion" style="rounded=0;whiteSpace=wrap;html=1;fontSize=20;fontFamily=Lucida Console;" parent="1" vertex="1">
          <mxGeometry x="1275" y="450" width="160" height="60" as="geometry" />
        </mxCell>
        <mxCell id="QLyix1z5AnvZfs8qaq27-2" value="&lt;u&gt;promo_id&lt;/u&gt;" style="ellipse;whiteSpace=wrap;html=1;fontFamily=Lucida Console;" parent="1" vertex="1">
          <mxGeometry x="1370" y="550" width="110" height="50" as="geometry" />
        </mxCell>
        <mxCell id="QLyix1z5AnvZfs8qaq27-3" value="name" style="ellipse;whiteSpace=wrap;html=1;fontFamily=Lucida Console;" parent="1" vertex="1">
          <mxGeometry x="1480" y="470" width="100" height="50" as="geometry" />
        </mxCell>
        <mxCell id="QLyix1z5AnvZfs8qaq27-4" value="" style="edgeStyle=none;shape=connector;rounded=0;orthogonalLoop=1;jettySize=auto;html=1;strokeColor=default;align=center;verticalAlign=middle;fontFamily=Helvetica;fontSize=11;fontColor=default;labelBackgroundColor=default;startFill=0;endArrow=none;" parent="1" source="QLyix1z5AnvZfs8qaq27-3" target="QLyix1z5AnvZfs8qaq27-1" edge="1">
          <mxGeometry relative="1" as="geometry" />
        </mxCell>
        <mxCell id="QLyix1z5AnvZfs8qaq27-5" style="edgeStyle=none;shape=connector;rounded=0;orthogonalLoop=1;jettySize=auto;html=1;entryX=0.879;entryY=1.055;entryDx=0;entryDy=0;entryPerimeter=0;strokeColor=default;align=center;verticalAlign=middle;fontFamily=Helvetica;fontSize=11;fontColor=default;labelBackgroundColor=default;startFill=0;endArrow=none;" parent="1" source="QLyix1z5AnvZfs8qaq27-2" target="QLyix1z5AnvZfs8qaq27-1" edge="1">
          <mxGeometry relative="1" as="geometry" />
        </mxCell>
        <mxCell id="QLyix1z5AnvZfs8qaq27-6" value="start_date" style="ellipse;whiteSpace=wrap;html=1;fontFamily=Lucida Console;" parent="1" vertex="1">
          <mxGeometry x="1470" y="400" width="100" height="50" as="geometry" />
        </mxCell>
        <mxCell id="QLyix1z5AnvZfs8qaq27-10" value="" style="rounded=0;orthogonalLoop=1;jettySize=auto;html=1;endArrow=none;startFill=0;" parent="1" source="QLyix1z5AnvZfs8qaq27-7" target="QLyix1z5AnvZfs8qaq27-1" edge="1">
          <mxGeometry relative="1" as="geometry" />
        </mxCell>
        <mxCell id="QLyix1z5AnvZfs8qaq27-7" value="end_date" style="ellipse;whiteSpace=wrap;html=1;fontFamily=Lucida Console;" parent="1" vertex="1">
          <mxGeometry x="1360" y="360" width="100" height="50" as="geometry" />
        </mxCell>
        <mxCell id="QLyix1z5AnvZfs8qaq27-11" value="" style="rounded=0;orthogonalLoop=1;jettySize=auto;html=1;endArrow=none;startFill=0;" parent="1" source="QLyix1z5AnvZfs8qaq27-8" target="QLyix1z5AnvZfs8qaq27-1" edge="1">
          <mxGeometry relative="1" as="geometry" />
        </mxCell>
        <mxCell id="QLyix1z5AnvZfs8qaq27-8" value="price" style="ellipse;whiteSpace=wrap;html=1;fontFamily=Lucida Console;" parent="1" vertex="1">
          <mxGeometry x="1240" y="350" width="100" height="50" as="geometry" />
        </mxCell>
        <mxCell id="QLyix1z5AnvZfs8qaq27-9" style="rounded=0;orthogonalLoop=1;jettySize=auto;html=1;entryX=0.969;entryY=0;entryDx=0;entryDy=0;entryPerimeter=0;endArrow=none;startFill=0;" parent="1" source="QLyix1z5AnvZfs8qaq27-6" target="QLyix1z5AnvZfs8qaq27-1" edge="1">
          <mxGeometry relative="1" as="geometry" />
        </mxCell>
        <mxCell id="QLyix1z5AnvZfs8qaq27-13" value="create" style="rhombus;whiteSpace=wrap;html=1;" parent="1" vertex="1">
          <mxGeometry x="1110" y="510" width="80" height="80" as="geometry" />
        </mxCell>
        <mxCell id="QLyix1z5AnvZfs8qaq27-14" style="rounded=0;orthogonalLoop=1;jettySize=auto;html=1;entryX=0.013;entryY=0.421;entryDx=0;entryDy=0;entryPerimeter=0;edgeStyle=orthogonalEdgeStyle;endArrow=none;startFill=0;exitX=0.5;exitY=1;exitDx=0;exitDy=0;" parent="1" source="QLyix1z5AnvZfs8qaq27-13" target="QLyix1z5AnvZfs8qaq27-1" edge="1">
          <mxGeometry relative="1" as="geometry" />
        </mxCell>
        <mxCell id="QLyix1z5AnvZfs8qaq27-20" value="n" style="edgeLabel;html=1;align=center;verticalAlign=middle;resizable=0;points=[];" parent="QLyix1z5AnvZfs8qaq27-14" vertex="1" connectable="0">
          <mxGeometry x="0.8768" relative="1" as="geometry">
            <mxPoint as="offset" />
          </mxGeometry>
        </mxCell>
        <mxCell id="QLyix1z5AnvZfs8qaq27-17" style="edgeStyle=orthogonalEdgeStyle;rounded=0;orthogonalLoop=1;jettySize=auto;html=1;endArrow=none;startFill=0;" parent="1" source="QLyix1z5AnvZfs8qaq27-13" target="rsgTIMn-WzFMBPmV8Hxk-26" edge="1">
          <mxGeometry relative="1" as="geometry">
            <Array as="points">
              <mxPoint x="1150" y="490" />
              <mxPoint x="680" y="490" />
            </Array>
          </mxGeometry>
        </mxCell>
        <mxCell id="QLyix1z5AnvZfs8qaq27-18" value="1" style="edgeLabel;html=1;align=center;verticalAlign=middle;resizable=0;points=[];" parent="QLyix1z5AnvZfs8qaq27-17" vertex="1" connectable="0">
          <mxGeometry x="0.9174" y="-1" relative="1" as="geometry">
            <mxPoint as="offset" />
          </mxGeometry>
        </mxCell>
        <mxCell id="QLyix1z5AnvZfs8qaq27-21" value="" style="swimlane;startSize=0;strokeWidth=2;" parent="1" vertex="1">
          <mxGeometry x="-580" y="-150" width="2200" height="1720" as="geometry" />
        </mxCell>
        <mxCell id="QV1D1J3vsPDXYnWdBZSG-1" value="quantity" style="ellipse;whiteSpace=wrap;html=1;fontFamily=Lucida Console;" vertex="1" parent="QLyix1z5AnvZfs8qaq27-21">
          <mxGeometry x="1550" y="1410" width="100" height="50" as="geometry" />
        </mxCell>
        <mxCell id="QV1D1J3vsPDXYnWdBZSG-2" value="unit" style="ellipse;whiteSpace=wrap;html=1;fontFamily=Lucida Console;" vertex="1" parent="QLyix1z5AnvZfs8qaq27-21">
          <mxGeometry x="1700" y="1410" width="100" height="50" as="geometry" />
        </mxCell>
        <mxCell id="QV1D1J3vsPDXYnWdBZSG-6" value="update_at" style="ellipse;whiteSpace=wrap;html=1;fontFamily=Lucida Console;" vertex="1" parent="QLyix1z5AnvZfs8qaq27-21">
          <mxGeometry x="380" y="470" width="100" height="50" as="geometry" />
        </mxCell>
        <mxCell id="rsgTIMn-WzFMBPmV8Hxk-110" value="description" style="ellipse;whiteSpace=wrap;html=1;fontFamily=Lucida Console;" parent="QLyix1z5AnvZfs8qaq27-21" vertex="1">
          <mxGeometry x="155" y="450" width="100" height="50" as="geometry" />
        </mxCell>
        <mxCell id="rsgTIMn-WzFMBPmV8Hxk-106" value="&lt;u&gt;event_id&lt;/u&gt;" style="ellipse;whiteSpace=wrap;html=1;fontFamily=Lucida Console;" parent="QLyix1z5AnvZfs8qaq27-21" vertex="1">
          <mxGeometry x="270" y="440" width="110" height="50" as="geometry" />
        </mxCell>
        <mxCell id="QV1D1J3vsPDXYnWdBZSG-3" style="rounded=0;orthogonalLoop=1;jettySize=auto;html=1;entryX=0.809;entryY=0.665;entryDx=0;entryDy=0;entryPerimeter=0;endArrow=none;startFill=0;" edge="1" parent="1" source="QV1D1J3vsPDXYnWdBZSG-2" target="rsgTIMn-WzFMBPmV8Hxk-97">
          <mxGeometry relative="1" as="geometry" />
        </mxCell>
        <mxCell id="QV1D1J3vsPDXYnWdBZSG-5" value="" style="rounded=0;orthogonalLoop=1;jettySize=auto;html=1;exitX=0.447;exitY=0.084;exitDx=0;exitDy=0;exitPerimeter=0;entryX=0;entryY=1;entryDx=0;entryDy=0;endArrow=none;startFill=0;" edge="1" parent="1" source="QV1D1J3vsPDXYnWdBZSG-1" target="rsgTIMn-WzFMBPmV8Hxk-97">
          <mxGeometry relative="1" as="geometry">
            <mxPoint x="1040" y="1270" as="sourcePoint" />
            <mxPoint x="1065" y="1230" as="targetPoint" />
          </mxGeometry>
        </mxCell>
        <mxCell id="QV1D1J3vsPDXYnWdBZSG-7" style="rounded=0;orthogonalLoop=1;jettySize=auto;html=1;entryX=0.963;entryY=0.047;entryDx=0;entryDy=0;entryPerimeter=0;endArrow=none;startFill=0;" edge="1" parent="1" source="QV1D1J3vsPDXYnWdBZSG-6" target="rsgTIMn-WzFMBPmV8Hxk-3">
          <mxGeometry relative="1" as="geometry" />
        </mxCell>
      </root>
    </mxGraphModel>
  </diagram>
</mxfile>
